<svg width="206" height="177" viewBox="0 0 206 177" fill="none" xmlns="http://www.w3.org/2000/svg">
<g clip-path="url(#clip0_0_12)">
<path d="M94.9313 58.3903C96.9612 55.1294 98.9964 51.5109 101.005 47.5069C108.662 32.2008 112.981 21.6485 120.989 14.6109C129.131 7.45767 144.592 3.77671 160.448 3.05176e-05C127.331 7.88306 130.434 15.6358 114.144 48.1955C111.561 53.3936 108.508 58.3444 105.022 62.9858C103.734 64.683 102.443 66.2676 101.15 67.7396C87.5906 83.1215 68.6727 86.1617 68.0492 86.3132L67.2024 86.4169C67.3606 86.3757 75.237 84.8829 88.2181 65.8546C88.2181 65.8546 86.0579 50.8582 65.5168 46.5033C65.5008 46.5099 83.0575 46.5166 94.9313 58.3903Z" fill="black"/>
<path d="M57.776 46.5099C57.776 46.5099 29.4609 49.7575 29.4609 91.741V98.7094C31.0708 121.101 36.8694 142.131 57.6657 142.131C36.8627 142.131 27.9894 132.123 19.1425 118.109V176.866H0.0664062V14.6667H19.1292V71.1241C19.1292 71.1241 29.4543 46.5099 57.776 46.5099Z" fill="black"/>
<path d="M115.444 128.676C113.978 125.728 112.338 122.87 110.533 120.117C109.1 117.921 107.547 115.806 105.88 113.782C90.9034 95.6001 68.7325 94.6163 68.0439 94.4435L67.1971 94.3398C67.245 94.3398 72.012 95.6399 78.7133 100.806C83.4458 104.465 86.6894 105.848 93.1593 115.975C87.9177 129.782 81.7402 142.117 65.4982 142.117C81.7402 142.117 90.4767 137.885 100.032 126.982C100.795 128.358 101.553 129.774 102.303 131.274C118.737 164.136 130.198 170.603 159.152 176.863C128.473 169.304 131.734 161.227 115.444 128.676Z" fill="black"/>
<path d="M138.082 86.9526H134.808V96.5425H133.906V77.2803H134.808V86.0925H138.082L145.607 77.2803H146.771L138.888 86.5126L147.487 96.5425H146.317L138.082 86.9526Z" fill="#231F20"/>
<path d="M147.881 89.1128C147.849 88.096 148.026 87.0835 148.399 86.137C148.772 85.1906 149.334 84.33 150.05 83.6078C150.766 82.8857 151.623 82.317 152.566 81.9365C153.509 81.5559 154.521 81.3716 155.538 81.3946C157.035 81.3497 158.509 81.7774 159.75 82.617C160.99 83.4567 161.935 84.6657 162.45 86.0726H161.556C161.048 84.9081 160.203 83.9222 159.131 83.2418C158.058 82.5614 156.806 82.2176 155.536 82.2547C153.809 82.3887 152.196 83.1694 151.019 84.4409C149.843 85.7124 149.189 87.3811 149.189 89.1135C149.189 90.8459 149.843 92.5145 151.019 93.786C152.196 95.0575 153.809 95.8383 155.536 95.9722C156.814 96.0021 158.071 95.6516 159.149 94.9652C160.227 94.2788 161.077 93.2874 161.59 92.1171H162.498C161.972 93.5299 161.019 94.7436 159.771 95.5894C158.524 96.4352 157.043 96.8711 155.536 96.8363C154.521 96.8544 153.512 96.6667 152.57 96.2844C151.629 95.9022 150.775 95.3333 150.06 94.6122C149.344 93.891 148.782 93.0324 148.407 92.0882C148.033 91.144 147.853 90.1337 147.879 89.1181L147.881 89.1128Z" fill="#231F20"/>
<path d="M166.234 76.4348H167.114V96.5426H166.234V76.4348Z" fill="#231F20"/>
<path d="M172.246 90.3092V81.6831H173.126V90.2069C173.126 93.7629 175.189 95.9723 178.499 95.9723C181.809 95.9723 183.879 93.7576 183.879 90.2069V81.6831H184.759V90.3092C184.759 94.2787 182.337 96.831 178.499 96.831C174.662 96.831 172.246 94.2787 172.246 90.3092Z" fill="#231F20"/>
<path d="M205.066 89.1128C205.098 90.8255 204.548 92.4984 203.507 93.8585C202.465 95.2187 200.994 96.1858 199.332 96.6022C197.671 97.0186 195.917 96.8597 194.357 96.1514C192.798 95.4431 191.524 94.2272 190.744 92.7021L190.62 96.5266H189.932V76.4348H190.812V85.4611C191.598 83.947 192.873 82.7435 194.43 82.0467C195.987 81.3498 197.734 81.2006 199.387 81.6234C201.039 82.0462 202.5 83.0161 203.531 84.3751C204.562 85.734 205.103 87.4021 205.065 89.1075L205.066 89.1128ZM204.172 89.1128C204.211 88.2134 204.066 87.3153 203.746 86.474C203.425 85.6327 202.935 84.8661 202.307 84.2215C201.678 83.5769 200.924 83.0679 200.091 82.7259C199.258 82.384 198.364 82.2164 197.464 82.2335C195.737 82.3674 194.124 83.1482 192.947 84.4197C191.77 85.6912 191.117 87.3598 191.117 89.0922C191.117 90.8246 191.77 92.4933 192.947 93.7648C194.124 95.0363 195.737 95.817 197.464 95.951C198.362 95.9746 199.256 95.8128 200.089 95.4758C200.922 95.1388 201.677 94.6337 202.306 93.9921C202.936 93.3505 203.426 92.5862 203.747 91.7467C204.068 90.9072 204.213 90.0106 204.172 89.1128Z" fill="#231F20"/>
</g>
<defs>
<clipPath id="clip0_0_12">
<rect width="205" height="176.864" fill="white" transform="translate(0.0664062)"/>
</clipPath>
</defs>
</svg>
