<svg width="24" height="24" viewBox="0 0 24 24" fill="none" xmlns="http://www.w3.org/2000/svg">
<path d="M23.1517 12.2965C23.1517 14.5855 22.4729 16.8231 21.2012 18.7264C19.9295 20.6296 18.122 22.113 16.0072 22.9889C13.8925 23.8649 11.5654 24.0941 9.32042 23.6475C7.0754 23.201 5.01322 22.0987 3.39465 20.4801C1.77609 18.8616 0.673829 16.7994 0.227267 14.5544C-0.219294 12.3094 0.00989735 9.98234 0.885859 7.86759C1.76182 5.75283 3.24521 3.94531 5.14844 2.67361C7.05168 1.40191 9.28927 0.723145 11.5783 0.723145C14.6477 0.723145 17.5915 1.94248 19.7619 4.11291C21.9323 6.28334 23.1517 9.22708 23.1517 12.2965ZM11.8878 4.54964C10.797 4.50837 9.71536 4.76326 8.75776 5.28724C7.80016 5.81122 7.00232 6.58473 6.44895 7.52565C6.36981 7.64513 6.33942 7.79038 6.36402 7.93157C6.38862 8.07276 6.46633 8.19918 6.58121 8.28486L8.20017 9.5123C8.31694 9.60098 8.46386 9.64027 8.60931 9.62171C8.75476 9.60316 8.88712 9.52825 8.9779 9.4131C9.81118 8.35496 10.3826 7.74257 11.6523 7.74257C12.606 7.74257 13.7845 8.35629 13.7845 9.28083C13.7845 9.97921 13.2078 10.339 12.2661 10.868C11.1643 11.4857 9.70934 12.2463 9.70934 14.1628V14.3493C9.70934 14.4977 9.76828 14.64 9.87321 14.7449C9.97813 14.8499 10.1204 14.9088 10.2688 14.9088H12.8837C13.0321 14.9088 13.1744 14.8499 13.2794 14.7449C13.3843 14.64 13.4432 14.4977 13.4432 14.3493V14.2871C13.4432 12.9645 17.3253 12.9036 17.3253 9.30993C17.3266 6.60242 14.5186 4.54964 11.8878 4.54964ZM11.5769 16.123C11.1524 16.123 10.7373 16.2489 10.3843 16.4848C10.0313 16.7207 9.75614 17.056 9.59366 17.4482C9.43118 17.8405 9.38867 18.2721 9.4715 18.6885C9.55433 19.1049 9.75878 19.4874 10.059 19.7877C10.3592 20.0879 10.7417 20.2923 11.1581 20.3752C11.5746 20.458 12.0062 20.4155 12.3985 20.253C12.7907 20.0905 13.126 19.8154 13.3619 19.4624C13.5977 19.1093 13.7236 18.6943 13.7236 18.2697C13.7229 17.7008 13.4967 17.1554 13.0946 16.753C12.6924 16.3506 12.1472 16.1241 11.5783 16.123H11.5769Z" fill="#727272"/>
</svg>
