<svg width="124" height="107" viewBox="0 0 124 107" fill="none" xmlns="http://www.w3.org/2000/svg">
<g clip-path="url(#clip0_155_51)">
<path d="M57.3817 35.3192C58.6095 33.3468 59.8406 31.158 61.0556 28.7361C65.6872 19.4778 68.2997 13.0949 73.1435 8.83803C78.0686 4.51121 87.4202 2.28467 97.0114 0.000244141C76.9798 4.76852 78.8566 9.45799 69.0032 29.1526C67.4408 32.2969 65.5939 35.2915 63.4855 38.099C62.7061 39.1255 61.9253 40.084 61.1432 40.9744C52.9415 50.2786 41.4984 52.1175 41.1213 52.2092L40.6091 52.2719C40.7048 52.247 45.469 51.344 53.321 39.8342C53.321 39.8342 52.0144 30.7632 39.5895 28.129C39.5799 28.133 50.1995 28.1371 57.3817 35.3192Z" fill="black"/>
<path d="M34.9073 28.1331C34.9073 28.1331 17.7801 30.0975 17.7801 55.4923V59.7074C18.7539 73.2515 22.2613 85.9723 34.8405 85.9723C22.2573 85.9723 16.89 79.9183 11.5387 71.4415V106.982H0V8.87183H11.5307V43.0217C11.5307 43.0217 17.7761 28.1331 34.9073 28.1331Z" fill="black"/>
<path d="M69.7896 77.8334C68.9028 76.0504 67.9106 74.3218 66.8185 72.6566C65.9519 71.3282 65.0124 70.0488 64.0042 68.8243C54.9453 57.8267 41.5346 57.2317 41.1181 57.1272L40.6059 57.0645C40.6348 57.0645 43.5183 57.8509 47.5717 60.9756C50.4343 63.1892 52.3963 64.0255 56.3098 70.1511C53.1393 78.5024 49.4027 85.9635 39.5783 85.9635C49.4027 85.9635 54.6872 83.4041 60.467 76.8089C60.9285 77.6412 61.3869 78.4975 61.8404 79.4054C71.7814 99.2825 78.7135 103.194 96.2274 106.981C77.6706 102.409 79.643 97.5232 69.7896 77.8334Z" fill="black"/>
<path d="M83.4826 52.5959H81.5021V58.3967H80.9569V46.7454H81.5021V52.0757H83.4826L88.0345 46.7454H88.7381L83.9698 52.3298L89.1715 58.3967H88.4639L83.4826 52.5959Z" fill="black"/>
<path d="M89.4095 53.9024C89.3907 53.2874 89.4973 52.6749 89.7229 52.1025C89.9486 51.53 90.2884 51.0094 90.7218 50.5726C91.1552 50.1358 91.673 49.7918 92.2437 49.5616C92.8143 49.3315 93.4259 49.2199 94.0411 49.2339C94.9469 49.2067 95.8383 49.4654 96.5888 49.9733C97.3393 50.4812 97.9109 51.2125 98.2224 52.0635H97.6812C97.3742 51.3591 96.8633 50.7628 96.2144 50.3512C95.5656 49.9396 94.8084 49.7317 94.0403 49.7541C92.9955 49.8352 92.0198 50.3074 91.308 51.0765C90.5963 51.8456 90.2009 52.8549 90.2009 53.9028C90.2009 54.9507 90.5963 55.9601 91.308 56.7292C92.0198 57.4983 92.9955 57.9705 94.0403 58.0516C94.8131 58.0696 95.5738 57.8576 96.2258 57.4424C96.8778 57.0272 97.3916 56.4276 97.7021 55.7197H98.2513C97.9333 56.5742 97.3567 57.3083 96.602 57.82C95.8473 58.3316 94.9518 58.5952 94.0403 58.5742C93.4259 58.5852 92.8157 58.4716 92.2464 58.2404C91.677 58.0092 91.1604 57.6651 90.7277 57.2289C90.2949 56.7927 89.9549 56.2733 89.7283 55.7022C89.5016 55.131 89.3929 54.5199 89.4087 53.9057L89.4095 53.9024Z" fill="black"/>
<path d="M100.511 46.2339H101.043V58.3966H100.511V46.2339Z" fill="black"/>
<path d="M104.148 54.6262V49.4084H104.68V54.5643C104.68 56.7152 105.928 58.0516 107.93 58.0516C109.932 58.0516 111.184 56.712 111.184 54.5643V49.4084H111.717V54.6262C111.717 57.0272 110.252 58.5711 107.93 58.5711C105.609 58.5711 104.148 57.0272 104.148 54.6262Z" fill="black"/>
<path d="M124 53.9025C124.019 54.9385 123.687 55.9504 123.057 56.7731C122.427 57.5958 121.537 58.1808 120.532 58.4327C119.527 58.6846 118.466 58.5885 117.522 58.16C116.579 57.7316 115.808 56.9961 115.337 56.0736L115.262 58.3869H114.845V46.2339H115.378V51.6937C115.853 50.7778 116.624 50.0499 117.566 49.6284C118.508 49.2068 119.565 49.1166 120.564 49.3724C121.564 49.6281 122.448 50.2147 123.071 51.0367C123.695 51.8588 124.022 52.8677 123.999 53.8993L124 53.9025ZM123.459 53.9025C123.483 53.3584 123.395 52.8152 123.201 52.3063C123.007 51.7975 122.711 51.3338 122.331 50.9439C121.95 50.5539 121.494 50.2461 120.991 50.0392C120.487 49.8324 119.946 49.731 119.401 49.7413C118.357 49.8224 117.381 50.2946 116.669 51.0637C115.957 51.8328 115.562 52.8422 115.562 53.8901C115.562 54.938 115.957 55.9473 116.669 56.7164C117.381 57.4855 118.357 57.9577 119.401 58.0388C119.945 58.053 120.485 57.9552 120.989 57.7513C121.493 57.5475 121.95 57.242 122.331 56.8539C122.711 56.4658 123.008 56.0035 123.202 55.4957C123.396 54.9879 123.484 54.4456 123.459 53.9025Z" fill="black"/>
</g>
<defs>
<clipPath id="clip0_155_51">
<rect width="124" height="106.981" fill="white"/>
</clipPath>
</defs>
</svg>
