<svg width="25" height="26" viewBox="0 0 25 26" fill="none" xmlns="http://www.w3.org/2000/svg">
<path d="M12.5188 25.0376C11.1368 25.0308 10.0162 23.9158 10.0025 22.5338H15.01C15.013 22.8684 14.9496 23.2003 14.8235 23.5103C14.4949 24.2638 13.8242 24.8134 13.0208 24.9875H12.9632C12.8169 25.0178 12.6681 25.0346 12.5188 25.0376ZM22.5338 21.2819H2.50376V18.7782L5.00751 17.5263V10.641C4.94156 8.87471 5.34043 7.12209 6.16425 5.55834C6.98427 4.10805 8.38595 3.07821 10.015 2.72909V0H15.0225V2.72909C18.2511 3.49775 20.03 6.30696 20.03 10.641V17.5263L22.5338 18.7782V21.2819ZM25 10.015H22.4962C22.3797 6.77754 20.8233 3.76128 18.2524 1.79019L20.03 0C21.5274 1.16485 22.7373 2.65787 23.5666 4.36405C24.4241 6.13048 24.9119 8.05342 25 10.015ZM2.50376 10.015H0C0.0880785 8.05342 0.575845 6.13047 1.4334 4.36405C2.26272 2.65787 3.47264 1.16485 4.96996 0L6.74762 1.79019C4.17641 3.76104 2.62 6.77744 2.50376 10.015Z" fill="#D8942E"/>
</svg>
