<svg width="50" height="50" viewBox="0 0 50 50" fill="none" xmlns="http://www.w3.org/2000/svg">
<circle cx="25.0001" cy="25" r="25" fill="#ACACAC"/>
<path d="M24.0333 14.0643C22.8602 14.2448 21.8118 14.8034 20.9911 15.6756C20.0887 16.6338 19.6204 17.7424 19.5559 19.0702C19.4657 20.9264 20.3766 22.701 21.9493 23.728C22.7227 24.235 23.4661 24.4928 24.3684 24.5659C26.0399 24.6948 27.4665 24.1706 28.618 22.9975C29.5333 22.0694 29.9973 21.0553 30.109 19.762C30.2637 18.0346 29.6106 16.4276 28.3087 15.3018C27.4665 14.5799 26.693 14.219 25.6231 14.0643C25.1075 13.9913 24.5059 13.987 24.0333 14.0643Z" fill="white"/>
<path d="M20.1317 24.6602C18.1895 24.8664 16.8403 26.2586 16.2129 28.7164C15.7961 30.3535 15.6887 32.3215 15.9551 33.4C16.1743 34.2637 16.8918 35.1403 17.7211 35.5614C18.095 35.7504 18.6321 35.9051 19.0833 35.9567C19.3497 35.991 21.3778 35.9996 25.2579 35.991L31.0372 35.9782L31.4024 35.875C32.7602 35.5055 33.6883 34.5946 34.0278 33.3141C34.204 32.6481 34.1825 31.0582 33.9762 29.8035C33.525 27.0106 32.3821 25.3348 30.5731 24.8106C30.1606 24.6903 29.4215 24.6 29.2024 24.643C28.9918 24.6817 28.6997 24.8364 28.0379 25.2617C27.3333 25.7172 27.2344 25.7688 26.7059 25.9664C26.0957 26.1942 25.593 26.293 25.0043 26.293C24.4028 26.293 23.9387 26.2071 23.3286 25.9922C22.7528 25.786 22.727 25.7731 21.8247 25.2016C21.352 24.9008 20.9997 24.7074 20.8622 24.6688C20.6215 24.6086 20.6215 24.6086 20.1317 24.6602Z" fill="white"/>
</svg>
