<svg width="22" height="22" viewBox="0 0 22 22" fill="none" xmlns="http://www.w3.org/2000/svg">
<g clip-path="url(#clip0_155_1064)">
<path d="M10.2051 0.0388184C9.37148 0.176317 9.03203 0.425537 8.67109 1.1689C8.37461 1.77905 8.00078 2.06265 7.13281 2.34194C6.61289 2.50522 6.30781 2.50093 5.86523 2.31616C5.41406 2.1314 4.9543 2.09702 4.58477 2.22593C4.21523 2.35913 3.81133 2.65132 3.2957 3.15835C2.74141 3.70835 2.43633 4.12944 2.32031 4.50327C2.2 4.88999 2.21289 5.09624 2.38477 5.61616C2.57383 6.18335 2.58242 6.48413 2.42773 6.9439C2.17422 7.70015 1.81758 8.22007 1.43945 8.39624C0.846484 8.66694 0.713281 8.75288 0.515625 8.96772C0.133203 9.38452 0.0214844 9.8228 0.0214844 10.9357C0.0214844 11.8123 0.0644531 12.1087 0.240625 12.4826C0.416797 12.8607 0.601562 13.0326 1.10859 13.2947C1.65 13.5697 1.85195 13.763 2.07969 14.2185C2.32461 14.7041 2.45781 15.1466 2.46211 15.4904C2.46211 15.7353 2.43633 15.8556 2.32031 16.1349C2.04961 16.788 2.10117 17.3294 2.48359 17.9181C2.70703 18.2576 3.62227 19.1814 3.96602 19.4091C4.30977 19.6369 4.68359 19.7658 4.99727 19.7658C5.13906 19.7658 5.37539 19.7099 5.65039 19.6154C6.34219 19.3748 6.78477 19.4263 7.60977 19.856C8.12969 20.1267 8.2543 20.2599 8.5207 20.8099C8.85586 21.5017 9.16953 21.7638 9.86133 21.9185C10.2137 22.0001 11.7863 22.0001 12.1387 21.9185C12.8305 21.7638 13.1441 21.5017 13.4793 20.8099C13.7457 20.2599 13.8703 20.1267 14.3902 19.856C15.2152 19.4263 15.6578 19.3748 16.3496 19.6154C17.2391 19.9248 17.7461 19.7572 18.6871 18.8419C19.2629 18.2833 19.5078 17.9783 19.6926 17.5873C19.8172 17.3208 19.8301 17.2607 19.8301 16.8869C19.8258 16.5216 19.8129 16.44 19.6797 16.1349C19.4949 15.688 19.4863 15.3486 19.6582 14.8458C19.8086 14.3904 20.0707 13.8919 20.2641 13.6943C20.3543 13.6041 20.6293 13.4279 20.8871 13.2947C21.5273 12.9681 21.7723 12.663 21.9184 12.0099C21.9957 11.6833 22 10.2095 21.927 9.90015C21.7465 9.12241 21.4328 8.76147 20.6937 8.46069C20.2125 8.26733 19.8516 7.77749 19.5723 6.9439C19.4176 6.48413 19.4262 6.18335 19.6152 5.61616C19.7871 5.09624 19.8 4.88999 19.6797 4.50327C19.568 4.13804 19.2672 3.71694 18.7559 3.20561C18.2703 2.72866 17.9309 2.46226 17.5828 2.29038C17.3637 2.18296 17.2906 2.17007 16.9082 2.17007C16.5172 2.17007 16.4484 2.18296 16.1348 2.31616C15.8641 2.42788 15.7352 2.45796 15.5117 2.45796C14.9961 2.45366 14.0465 2.07554 13.6898 1.73179C13.591 1.63725 13.4406 1.40093 13.3289 1.17319C13.0152 0.524364 12.7531 0.288036 12.1645 0.116161C11.8465 0.0259266 10.5961 -0.0256348 10.2051 0.0388184ZM11.8422 1.46108C11.9496 1.49976 12.0012 1.56851 12.1258 1.83921C12.4738 2.60835 13.0152 3.0853 13.9863 3.48491C15.0047 3.89741 15.7352 3.94468 16.5 3.64819C16.6762 3.57944 16.8652 3.52358 16.9125 3.52358C17.1145 3.52358 18.0555 4.37866 18.3004 4.78257L18.3992 4.94585L18.266 5.31968C18.0125 6.02007 18.0168 6.63022 18.2832 7.41655C18.6785 8.60679 19.2027 9.2728 20.0535 9.67671C20.4789 9.87436 20.4961 9.89155 20.5477 10.0677C20.6293 10.3384 20.625 11.6705 20.5391 11.838C20.4918 11.9326 20.3715 12.0142 20.0836 12.1603C19.8687 12.2677 19.6023 12.4267 19.4906 12.5212C18.8934 13.0111 18.3047 14.197 18.1758 15.181C18.1199 15.6021 18.1629 16.006 18.309 16.4056C18.5023 16.9341 18.5066 16.947 18.3691 17.149C18.193 17.4197 17.5098 18.1115 17.2648 18.2662L17.05 18.4037L16.7879 18.3048C16.2852 18.1201 16.0359 18.0814 15.5332 18.1029C15.009 18.1244 14.5922 18.2361 13.9863 18.5197C13.1355 18.9107 12.6758 19.3361 12.3277 20.0494C12.1172 20.4748 12.1 20.4962 11.9281 20.5478C11.6918 20.6208 10.3082 20.6208 10.0719 20.5478C9.9 20.4962 9.88281 20.4748 9.67227 20.0494C9.32422 19.3361 8.86875 18.9107 8.02656 18.524C7.40781 18.2361 6.99531 18.1287 6.4668 18.1029C5.96406 18.0814 5.71484 18.1201 5.21211 18.3048L4.95 18.4037L4.73516 18.2662C4.49023 18.1115 3.80703 17.4197 3.63086 17.149C3.49336 16.947 3.49766 16.9341 3.69102 16.4056C3.83711 16.006 3.88008 15.6021 3.82422 15.181C3.69531 14.197 3.10664 13.0111 2.50937 12.5212C2.39766 12.4267 2.13125 12.2677 1.91641 12.1603C1.62852 12.0142 1.5082 11.9326 1.46094 11.838C1.375 11.6705 1.3707 10.3384 1.45234 10.0677C1.50391 9.89155 1.52109 9.87436 1.94648 9.67671C2.79297 9.2771 3.32148 8.60249 3.7168 7.41655C3.9832 6.63022 3.9875 6.02007 3.73398 5.31968L3.60078 4.94585L3.69961 4.78257C3.94453 4.37866 4.88555 3.52358 5.0875 3.52358C5.13477 3.52358 5.32383 3.57944 5.5 3.64819C6.26484 3.94468 6.99531 3.89741 8.01367 3.48062C8.98906 3.0853 9.52187 2.61265 9.87422 1.83491C10.0332 1.48686 10.0547 1.46968 10.4414 1.40093C10.6391 1.36655 11.709 1.40952 11.8422 1.46108Z" fill="currentColor"/>
<path d="M10.3554 6.93978C8.56785 7.21907 7.15848 8.68431 6.91356 10.5105C6.76317 11.6663 7.17137 12.921 7.98778 13.8062C8.92449 14.8159 10.3468 15.2972 11.6917 15.0609C14.1667 14.6312 15.6921 12.1003 14.9014 9.72415C14.4116 8.24603 13.1354 7.16751 11.6014 6.93548C11.1116 6.86243 10.8452 6.86243 10.3554 6.93978ZM11.7991 8.38353C12.3491 8.5511 12.8518 8.89915 13.1784 9.33743C14.0163 10.4675 13.9175 11.9585 12.9378 12.9382C11.855 14.021 10.1448 14.021 9.06199 12.9382C7.76864 11.6406 8.06942 9.50501 9.68074 8.60267C10.2995 8.25462 11.103 8.16868 11.7991 8.38353Z" fill="currentColor"/>
</g>
<defs>
<clipPath id="clip0_155_1064">
<rect width="22" height="22" fill="currentColor"/>
</clipPath>
</defs>
</svg>
