<svg width="20" height="20" viewBox="0 0 20 20" fill="none" xmlns="http://www.w3.org/2000/svg">
<path d="M9.68768 0.0625C9.5119 0.140625 9.34784 0.292969 9.25409 0.476562C9.17987 0.621094 9.17987 0.738281 9.18768 4.21094L9.1994 7.79688L9.29706 7.94141C9.35175 8.02344 9.46503 8.13672 9.54706 8.19531C9.68378 8.28906 9.73847 8.30078 10.0002 8.30078C10.2619 8.30078 10.3166 8.28906 10.4533 8.19531C10.5353 8.13672 10.6486 8.02344 10.7033 7.94141L10.801 7.79688L10.8127 4.21094C10.8205 0.738281 10.8205 0.621094 10.7463 0.476562C10.5392 0.078125 10.0744 -0.105469 9.68768 0.0625Z" fill="currentColor"/>
<path d="M6.07443 2.55078C3.25802 3.90234 1.32443 6.57422 0.91427 9.6875C0.828333 10.3672 0.855676 11.7031 0.972864 12.3633C1.3049 14.2344 2.14083 15.8789 3.4338 17.1992C4.23458 18.0195 4.96896 18.5547 5.95724 19.043C8.53146 20.3125 11.469 20.3125 14.0432 19.043C16.3947 17.8828 18.1096 15.8125 18.8244 13.2695C19.0627 12.418 19.1213 11.957 19.1213 10.8594C19.1213 9.79297 19.094 9.53906 18.9065 8.73047C18.2658 6.01562 16.3752 3.6875 13.8713 2.53125C13.5666 2.39062 13.5119 2.375 13.2776 2.39062C12.9455 2.41016 12.7424 2.53906 12.5979 2.82422C12.4377 3.15234 12.4846 3.50781 12.7268 3.76172C12.7854 3.82422 13.0432 3.98047 13.301 4.10938C14.0861 4.50391 14.6916 4.93359 15.2619 5.5C18.1877 8.40234 18.2463 13.082 15.3947 16.0273C14.7307 16.7148 14.1408 17.1484 13.301 17.5586C12.7033 17.8555 12.1565 18.043 11.4846 18.1836C10.8088 18.3281 9.6799 18.3633 8.97677 18.2617C7.26974 18.0195 5.80099 17.2656 4.58615 16.0078C1.75411 13.0781 1.82443 8.39062 4.73849 5.5C5.3088 4.93359 5.92208 4.5 6.7424 4.08984C7.19552 3.85938 7.34396 3.73828 7.43771 3.50781C7.57833 3.17188 7.44552 2.72656 7.14083 2.51562C7.00802 2.42188 6.93771 2.40234 6.70333 2.39453C6.44552 2.38672 6.39865 2.39844 6.07443 2.55078Z" fill="currentColor"/>
</svg>
