<svg width="31" height="31" viewBox="0 0 31 31" fill="none" xmlns="http://www.w3.org/2000/svg">
<path d="M1.97227 0.079072C1.21523 0.257285 0.53125 0.897231 0.185937 1.75589L0 2.21763V6.47043V10.7232L0.179297 11.185C0.425 11.8249 0.830078 12.3353 1.35469 12.6512L1.79297 12.9104H5.2793H8.76562L9.14414 12.6836C9.86133 12.2543 10.3727 11.4199 10.5254 10.4478C10.6184 9.83218 10.6117 3.03579 10.5187 2.48495C10.2996 1.24556 9.55586 0.338291 8.54648 0.079072C8.12812 -0.0262356 2.41719 -0.0262356 1.97227 0.079072ZM8.33398 2.74417C8.46016 2.89808 8.4668 3.01148 8.4668 6.45423C8.4668 9.53246 8.45352 10.0185 8.36055 10.1805L8.26094 10.3587H5.25273C3.0082 10.3587 2.23125 10.3344 2.17148 10.2615C2.11172 10.1886 2.0918 9.24083 2.0918 6.50284V2.83327L2.23789 2.71176C2.3707 2.59835 2.76914 2.58215 5.29258 2.58215C8.11484 2.58215 8.20781 2.59025 8.33398 2.74417Z" fill="#D8942E"/>
<path d="M14.6426 1.95028C14.3238 2.2176 14.1644 2.51732 14.1312 2.92235C14.0848 3.39219 14.284 3.87822 14.6227 4.12934L14.875 4.32375L22.1797 4.34806L29.4844 4.36426L29.7832 4.18604C30.2215 3.91062 30.4008 3.5461 30.3676 2.97906C30.3344 2.45252 30.1551 2.09609 29.823 1.90168C29.6172 1.78827 28.8867 1.77207 22.2262 1.77207H14.8617L14.6426 1.95028Z" fill="#D8942E"/>
<path d="M14.7422 8.77108C14.2973 9.006 14.0449 9.62974 14.1379 10.2373C14.1977 10.618 14.5297 11.0635 14.8285 11.1689C14.9945 11.2337 16.5352 11.2499 19.5699 11.2337C23.9859 11.2094 24.0656 11.2094 24.2449 11.0392C24.5969 10.7233 24.7031 10.4641 24.7031 9.95377C24.7031 9.44343 24.5969 9.18421 24.2449 8.86829C24.0656 8.69817 23.9926 8.69817 19.5035 8.68197C15.8113 8.66577 14.9016 8.68197 14.7422 8.77108Z" fill="#D8942E"/>
<path d="M1.68008 17.4385C1.0293 17.722 0.517969 18.2648 0.185938 19.0424L0 19.4717V23.7651V28.0584L0.179297 28.512C0.53125 29.3788 1.22852 30.0187 2.01875 30.205C2.5168 30.3184 8.08828 30.3103 8.54648 30.1969C9.31016 30.0025 9.94766 29.4193 10.2863 28.6092C10.5785 27.8964 10.6051 27.5075 10.5785 23.4815C10.5586 20.1279 10.5453 19.6743 10.4391 19.3502C10.1469 18.443 9.52266 17.6977 8.83203 17.4466C8.38711 17.2765 2.05859 17.2765 1.68008 17.4385ZM8.36055 20.0955C8.45352 20.2575 8.4668 20.7435 8.4668 23.8218C8.4668 27.2645 8.46016 27.3779 8.33398 27.5318C8.20781 27.6857 8.11484 27.6938 5.29258 27.6938C2.76914 27.6938 2.3707 27.6776 2.23789 27.5642L2.0918 27.4427V23.7732C2.0918 21.0352 2.11172 20.0874 2.17148 20.0145C2.23125 19.9416 3.0082 19.9173 5.25273 19.9173H8.26094L8.36055 20.0955Z" fill="#D8942E"/>
<path d="M14.7422 19.1397C14.2973 19.3746 14.0449 19.9984 14.1379 20.6059C14.1977 20.9867 14.5297 21.4322 14.8285 21.5375C14.9945 21.6023 17.3785 21.6185 22.3922 21.6023C29.6969 21.578 29.7102 21.578 29.8961 21.4079C30.5469 20.8166 30.5469 19.8283 29.8961 19.2369C29.7102 19.0668 29.6969 19.0668 22.3258 19.0506C16.2895 19.0344 14.9016 19.0506 14.7422 19.1397Z" fill="#D8942E"/>
<path d="M14.8219 26.0251C14.4965 26.1709 14.3969 26.2843 14.2309 26.6732C13.9852 27.2645 14.1445 27.9126 14.6426 28.3176L14.8617 28.5039H19.4238H23.986L24.2051 28.3257C24.5238 28.0584 24.6832 27.7587 24.7164 27.3536C24.7629 26.8838 24.5637 26.3978 24.225 26.1466L23.9727 25.9522L19.5235 25.936C15.9176 25.9198 15.0277 25.936 14.8219 26.0251Z" fill="#D8942E"/>
</svg>
