<svg width="28" height="29" viewBox="0 0 28 29" fill="none" xmlns="http://www.w3.org/2000/svg">
<g clip-path="url(#clip0_155_99)">
<path d="M12.7039 0.642597C9.43359 0.959784 6.43672 2.37072 4.1125 4.68947C1.90312 6.89885 0.552341 9.64416 0.0984346 12.8653C-0.00547168 13.6309 0.0109346 15.6817 0.131247 16.4746C0.366403 18.0387 0.760153 19.3293 1.42187 20.6965L1.84843 21.5824L0.957028 24.3551C0.464841 25.8863 0.0437471 27.2317 0.0218721 27.3465C-0.0875029 28.0246 0.563278 28.6754 1.2414 28.566C1.35625 28.5442 2.70156 28.1231 4.23281 27.6309L7.00547 26.7395L7.8914 27.166C9.25859 27.8278 10.5492 28.2215 12.1133 28.4567C12.9062 28.577 14.957 28.5934 15.7227 28.4895C18.9437 28.0356 21.6672 26.6957 23.8875 24.4863C26.0586 22.3153 27.3875 19.6629 27.8742 16.502C28.0055 15.6215 28.0055 13.5543 27.8742 12.6738C27.3875 9.51838 26.0695 6.88244 23.8984 4.70041C21.7437 2.54025 19.0586 1.19494 15.9687 0.724628C15.2852 0.620722 13.4094 0.576971 12.7039 0.642597ZM15.0992 2.8301C16.9039 3.01056 18.8945 3.68322 20.2562 4.5801C22.6898 6.1715 24.3578 8.30432 25.2055 10.902C25.8562 12.8926 25.9766 14.7903 25.5883 16.8574C25.3422 18.1426 24.675 19.8324 24.0078 20.8442C22.4328 23.2449 20.3164 24.9184 17.7625 25.7715C14.443 26.8817 11.0578 26.5098 7.875 24.6942C7.2625 24.3442 7.25156 24.3496 4.83984 25.1317C3.72968 25.4926 2.81093 25.7879 2.80547 25.7824C2.8 25.777 3.09531 24.8582 3.45625 23.7481C4.27109 21.2488 4.26015 21.3582 3.78984 20.5215C2.78359 18.7332 2.2914 17.0215 2.2039 14.9981C1.98515 9.8301 5.3539 5.00666 10.3141 3.38244C11.9164 2.85744 13.5187 2.67697 15.0992 2.8301Z" fill="#D8942E"/>
<path d="M8.04998 13.3138C7.9242 13.3575 7.71092 13.4997 7.57967 13.6364C7.03279 14.1833 7.03279 14.9927 7.57967 15.5396C8.12654 16.0864 8.93592 16.0864 9.48279 15.5396C10.5109 14.5169 9.42263 12.8271 8.04998 13.3138Z" fill="#D8942E"/>
<path d="M13.5187 13.3138C13.393 13.3575 13.1797 13.4997 13.0484 13.6364C12.5016 14.1833 12.5016 14.9927 13.0484 15.5396C13.5953 16.0864 14.4047 16.0864 14.9516 15.5396C15.9797 14.5169 14.8914 12.8271 13.5187 13.3138Z" fill="#D8942E"/>
<path d="M18.9875 13.3138C18.8617 13.3575 18.6484 13.4997 18.5172 13.6364C17.9703 14.1833 17.9703 14.9927 18.5172 15.5396C19.064 16.0864 19.8734 16.0864 20.4203 15.5396C21.4484 14.5169 20.3601 12.8271 18.9875 13.3138Z" fill="#D8942E"/>
</g>
<defs>
<clipPath id="clip0_155_99">
<rect width="28" height="28" fill="white" transform="translate(0 0.588379)"/>
</clipPath>
</defs>
</svg>
