<svg width="28" height="29" viewBox="0 0 28 29" fill="none" xmlns="http://www.w3.org/2000/svg">
<g clip-path="url(#clip0_155_108)">
<path d="M5.90624 0.616165C5.86249 0.627104 5.63827 0.665384 5.41405 0.698196C4.1453 0.90601 2.90389 1.55679 1.93592 2.52476C1.01171 3.45445 0.410143 4.5482 0.131237 5.83882C0.0327997 6.28179 0.027331 6.70835 0.027331 14.5615C0.027331 23.5193 0.0109247 23.0709 0.333581 24.0607C0.650768 25.0396 1.18124 25.8927 1.93592 26.6529C2.69608 27.4076 3.54921 27.938 4.52811 28.2552C5.50155 28.5724 5.28827 28.5615 11.5445 28.5615H17.3141L17.5383 28.4138C17.8773 28.1896 18.0195 27.9216 18.0195 27.4951C18.0195 27.0685 17.8773 26.8005 17.5383 26.5763L17.3141 26.4287L11.5719 26.4013C5.35389 26.3685 5.73671 26.3849 4.92733 26.0787C3.93202 25.7013 2.88202 24.6513 2.51561 23.6779C2.19296 22.8248 2.21483 23.4482 2.21483 14.5888C2.21483 5.72945 2.19296 6.35288 2.51561 5.49976C2.90389 4.45523 3.9703 3.43804 5.08046 3.04429C5.86796 2.76538 5.75858 2.77085 14.2461 2.78726C22.8922 2.80367 22.2305 2.78179 23.089 3.10445C23.5211 3.26304 24.1555 3.6896 24.5273 4.07242C24.9156 4.45523 25.3258 5.07867 25.4844 5.49976C25.8015 6.34195 25.7797 5.92632 25.8125 12.1826C25.8398 17.8263 25.8398 17.9576 25.9492 18.138C26.0094 18.2419 26.1515 18.4005 26.2664 18.4935C26.4633 18.6521 26.507 18.663 26.9062 18.663C27.3 18.663 27.3492 18.6521 27.5461 18.4935C27.6609 18.406 27.8086 18.2201 27.8797 18.0834L28.0055 17.8427L27.9836 12.0185C27.9672 6.77945 27.9562 6.15601 27.8742 5.82242C27.2234 3.18648 25.4406 1.37632 22.8594 0.736479C22.4 0.621635 22.3453 0.621635 14.1914 0.610697C9.67968 0.605228 5.94999 0.605228 5.90624 0.616165Z" fill="#D8942E"/>
<path d="M6.34922 6.0959C5.86797 6.26543 5.46875 6.83965 5.46875 7.37012C5.46875 8.09199 6.11406 8.7373 6.83594 8.7373C7.16406 8.7373 7.54688 8.57324 7.79297 8.32715C8.82109 7.29902 7.72734 5.60918 6.34922 6.0959Z" fill="#D8942E"/>
<path d="M11.0578 6.4459C10.8008 6.52246 10.4617 6.87793 10.3852 7.1623C10.2594 7.64902 10.4508 8.15762 10.8664 8.41465L11.0742 8.5459H16.4336H21.793L22.0008 8.41465C22.1156 8.34355 22.2742 8.18496 22.3562 8.06465C22.482 7.87871 22.5039 7.78027 22.5039 7.47949C22.5039 7.17871 22.482 7.08027 22.3562 6.89434C22.2742 6.77402 22.1156 6.61543 22.0008 6.54434L21.793 6.41309L16.5156 6.40215C13.2836 6.39668 11.1672 6.41309 11.0578 6.4459Z" fill="#D8942E"/>
<path d="M6.19062 10.8209C5.93359 10.8975 5.59453 11.2529 5.51796 11.5373C5.39218 12.024 5.58359 12.5326 5.99921 12.7896L6.20703 12.9209H14H21.793L22.0008 12.7896C22.1156 12.7186 22.2742 12.56 22.3562 12.4396C22.482 12.2537 22.5039 12.1553 22.5039 11.8545C22.5039 11.5537 22.482 11.4553 22.3562 11.2693C22.2742 11.149 22.1156 10.9904 22.0008 10.9193L21.793 10.7881L14.082 10.7771C9.31328 10.7717 6.3 10.7881 6.19062 10.8209Z" fill="#D8942E"/>
<path d="M6.19062 15.1959C5.93359 15.2725 5.59453 15.6334 5.51796 15.9123C5.39218 16.399 5.58359 16.9076 5.99921 17.1646L6.20703 17.2959H8.53125H10.8555L11.0633 17.1646C11.1781 17.0936 11.3367 16.935 11.4187 16.8146C11.5445 16.6287 11.5664 16.5303 11.5664 16.2295C11.5664 15.9287 11.5445 15.8303 11.4187 15.6443C11.3367 15.524 11.1781 15.3654 11.0633 15.2943L10.8555 15.1631L8.61328 15.1521C7.29531 15.1467 6.29453 15.1631 6.19062 15.1959Z" fill="#D8942E"/>
<path d="M15.2688 15.1955C14.9078 15.2994 14.5469 15.8025 14.5469 16.2018C14.5469 16.4643 15.2633 19.9205 15.4219 20.4127C15.75 21.4354 16.2422 22.3049 16.9586 23.1471C17.4781 23.7596 21.4102 27.6643 21.7109 27.8611C22.0828 28.1127 22.4602 28.2932 22.9141 28.4299C23.4992 28.6158 24.5109 28.6158 25.1016 28.4299C26.4688 28.0088 27.4148 27.0627 27.8414 25.69C28.0273 25.0994 28.0273 24.0877 27.8414 23.5025C27.5297 22.5072 27.4258 22.3705 25.025 19.9588C22.843 17.7604 22.4 17.3557 21.6836 16.8908C20.6445 16.2127 19.8898 15.9611 17.5 15.4854C15.657 15.1244 15.5695 15.1135 15.2688 15.1955ZM18.0305 17.8205C18.9164 18.001 19.4852 18.176 19.9227 18.3947C20.6938 18.7885 20.9563 19.0127 23.2313 21.2822C25.818 23.858 25.7852 23.8143 25.7852 24.5963C25.7797 24.9518 25.7523 25.1213 25.6648 25.3182C25.5008 25.6791 25.1398 26.0455 24.7789 26.2205C24.5164 26.3518 24.407 26.3736 24.0078 26.3736C23.2258 26.3736 23.2695 26.4064 20.6938 23.8197C18.4242 21.5447 18.2 21.2822 17.8063 20.5111C17.5875 20.0736 17.4125 19.5049 17.232 18.6189C17.0406 17.6947 17.0352 17.651 17.1445 17.651C17.1883 17.651 17.5875 17.7275 18.0305 17.8205Z" fill="#D8942E"/>
</g>
<defs>
<clipPath id="clip0_155_108">
<rect width="28" height="28" fill="white" transform="translate(0 0.588379)"/>
</clipPath>
</defs>
</svg>
