<svg width="31" height="32" viewBox="0 0 31 32" fill="none" xmlns="http://www.w3.org/2000/svg">
<g clip-path="url(#clip0_155_77)">
<path d="M1.66504 0.673074C0.992969 0.884988 0.514648 1.30276 0.217969 1.92034L0.0302734 2.31389V5.76507V9.21624L0.230078 9.6219C0.472266 10.1184 0.950586 10.5725 1.44102 10.7723L1.78613 10.9116L6.87207 10.9297C10.523 10.9418 12.0609 10.9297 12.3213 10.8813C13.29 10.6936 13.9803 10.0033 14.168 9.0346C14.2164 8.7803 14.2285 7.72678 14.2164 5.52288C14.1982 2.3926 14.1982 2.37444 14.059 2.02932C13.8592 1.53889 13.4051 1.06057 12.9086 0.818386L12.5029 0.618582L7.20508 0.606472C3.03945 0.594362 1.85273 0.612527 1.66504 0.673074ZM12.1941 2.65901C12.2789 2.7801 12.291 3.17366 12.291 5.77717C12.291 8.68343 12.285 8.76819 12.1699 8.88323C12.0488 9.00432 11.9701 9.00432 7.12637 9.00432C2.77305 9.00432 2.1918 8.99221 2.0707 8.90745L1.9375 8.81663V5.78323C1.9375 3.04046 1.94961 2.73772 2.04043 2.63479C2.13125 2.53186 2.36738 2.52581 7.12031 2.52581H12.1033L12.1941 2.65901Z" fill="#D8942E"/>
<path d="M18.4608 0.673075C17.819 0.842606 17.1953 1.40569 16.941 2.02933L16.8018 2.37444L16.7836 9.39788C16.7715 14.4717 16.7836 16.5242 16.832 16.7846C17.0197 17.7533 17.71 18.4436 18.6787 18.6313C18.9391 18.6797 20.477 18.6918 24.1279 18.6797L29.2139 18.6616L29.559 18.5223C30.0494 18.3225 30.5277 17.8684 30.7699 17.3719L30.9697 16.9662V9.64007V2.3139L30.782 1.92034C30.5399 1.41175 30.1766 1.04847 29.6801 0.812332L29.2744 0.618584L24.0068 0.606474C19.9684 0.600418 18.6727 0.612528 18.4608 0.673075ZM28.9535 2.62874C29.0565 2.71956 29.0625 3.01624 29.0625 9.64612V16.5666L28.9293 16.6574C28.8082 16.7422 28.227 16.7543 23.8736 16.7543C19.0299 16.7543 18.9512 16.7543 18.8301 16.6332C18.709 16.5121 18.709 16.4334 18.709 9.65218C18.709 3.543 18.7211 2.78011 18.8059 2.65901L18.8967 2.52581H23.8676C28.4086 2.52581 28.8506 2.53186 28.9535 2.62874Z" fill="#D8942E"/>
<path d="M1.81639 13.5515C1.13827 13.6847 0.502524 14.1993 0.193735 14.8653L0.0302582 15.2104V22.5366V29.8628L0.217954 30.2563C0.454086 30.7589 0.829477 31.1343 1.33202 31.3704L1.72557 31.5581H7.11424H12.5029L12.9086 31.3583C13.4051 31.1161 13.8592 30.6378 14.059 30.1474L14.1982 29.8022L14.2164 22.7788C14.2285 17.705 14.2164 15.6524 14.168 15.3921C13.9863 14.4415 13.3082 13.7513 12.3637 13.5515C11.9762 13.4728 2.24022 13.4667 1.81639 13.5515ZM12.1699 15.5435C12.291 15.6646 12.291 15.7433 12.291 22.5245C12.291 28.6337 12.2789 29.3966 12.1941 29.5177L12.1033 29.6509H7.13241C2.59139 29.6509 2.1494 29.6448 2.04647 29.5479C1.94354 29.4571 1.93748 29.1604 1.93748 22.5306V15.6101L2.07069 15.5192C2.19178 15.4345 2.77303 15.4224 7.12635 15.4224C11.9701 15.4224 12.0488 15.4224 12.1699 15.5435Z" fill="#D8942E"/>
<path d="M18.5576 21.3196C17.6494 21.5437 17.0137 22.2157 16.832 23.1421C16.7836 23.3964 16.7715 24.4438 16.7836 26.6538C16.8018 29.7841 16.8018 29.8022 16.941 30.1474C17.1408 30.6378 17.5949 31.1161 18.0914 31.3583L18.4971 31.5581H23.8858H29.2744L29.6801 31.3644C30.1766 31.1282 30.5399 30.7649 30.782 30.2563L30.9697 29.8628V26.4116V22.9605L30.7699 22.5548C30.5277 22.0583 30.0494 21.6042 29.559 21.4044L29.2139 21.2651L24.0371 21.253C20.1076 21.247 18.7877 21.2591 18.5576 21.3196ZM28.9293 23.2692L29.0625 23.3601V26.3935C29.0625 29.1362 29.0504 29.439 28.9596 29.5419C28.8688 29.6448 28.6326 29.6509 23.8797 29.6509H18.8967L18.8059 29.5177C18.7211 29.3966 18.709 29.003 18.709 26.3995C18.709 23.4933 18.715 23.4085 18.8301 23.2935C18.9512 23.1724 19.0299 23.1724 23.8736 23.1724C28.227 23.1724 28.8082 23.1845 28.9293 23.2692Z" fill="#D8942E"/>
</g>
<defs>
<clipPath id="clip0_155_77">
<rect width="31" height="31" fill="white" transform="translate(0 0.588379)"/>
</clipPath>
</defs>
</svg>
