<svg width="30" height="30" viewBox="0 0 30 30" fill="none" xmlns="http://www.w3.org/2000/svg">
<path d="M10.8397 0.177182C9.60603 0.445977 8.72383 1.1352 8.0484 2.362C7.38675 3.56124 6.89741 3.93342 5.70506 4.14708C4.85732 4.3056 4.39555 4.4779 3.83039 4.85008C3.27212 5.21537 2.89305 5.64268 2.57601 6.24919C2.21762 6.9522 2.14869 7.27613 2.18316 8.21347C2.24518 10.1571 2.23829 10.3156 2.03153 10.7153C1.92814 10.9152 1.57664 11.3632 1.25271 11.7147C0.329158 12.7141 -0.0774804 13.7341 0.0121179 14.83C0.0948241 15.8776 0.446325 16.5875 1.37677 17.6006C1.65935 17.9108 1.9695 18.3105 2.0591 18.4966C2.2314 18.855 2.24518 19.0549 2.18316 20.9985C2.16248 21.7084 2.17626 21.9289 2.28654 22.2391C2.81724 23.8105 3.85106 24.6513 5.69128 25.0235C6.98011 25.2854 7.36608 25.5749 8.04151 26.7948C8.86857 28.3042 10.0333 29.0279 11.5979 29.0279C12.356 29.021 12.6524 28.9451 13.6035 28.504C14.7338 27.9733 15.2301 27.9733 16.3328 28.4765C17.408 28.9658 17.6354 29.021 18.4556 29.021C18.9794 29.0279 19.2827 28.9934 19.5583 28.8969C20.6542 28.5316 21.3641 27.9113 21.9706 26.8155C22.6392 25.6024 23.1009 25.244 24.314 25.0304C25.1755 24.8719 25.7544 24.6513 26.292 24.2654C26.7882 23.907 27.2018 23.4245 27.4775 22.8662C27.8014 22.2115 27.8634 21.8738 27.8359 20.964C27.7738 19.0135 27.7807 18.8619 27.9944 18.4552C28.0978 18.2485 28.401 17.8556 28.6629 17.5799C29.6347 16.553 30 15.7397 30 14.5887C30 13.4377 29.6554 12.6727 28.6698 11.6113C27.8083 10.6809 27.6704 10.2191 27.829 8.81309C27.9461 7.79993 27.8634 7.1245 27.5326 6.4215C26.9123 5.13266 25.9405 4.44344 24.314 4.14708C23.1492 3.94031 22.646 3.57503 22.074 2.52742C21.371 1.24547 20.7369 0.687203 19.5583 0.280565C19.2689 0.184074 18.9932 0.149613 18.4211 0.156506C17.601 0.163398 17.4562 0.197859 16.1812 0.776802C15.6505 1.01803 15.5402 1.0456 15.0095 1.0456C14.4512 1.0456 14.3823 1.02492 13.7 0.70788C13.3002 0.528683 12.8385 0.335702 12.6662 0.280565C12.2871 0.156506 11.2119 0.101368 10.8397 0.177182ZM19.5721 1.81063C20.0684 2.05875 20.4474 2.48606 20.8334 3.22353C21.0815 3.69219 21.309 4.00923 21.6605 4.36074C22.3014 5.01549 22.8528 5.29118 23.9693 5.51862C24.9549 5.72539 25.334 5.8908 25.7406 6.29055C26.3816 6.93841 26.5401 7.59317 26.3816 8.9785C26.2093 10.4534 26.5332 11.3908 27.6015 12.5349C28.401 13.3895 28.5526 13.7203 28.5526 14.5887C28.5526 15.4434 28.3872 15.8155 27.6636 16.5668C27.0708 17.194 26.7331 17.7178 26.5057 18.3725C26.3678 18.7654 26.3471 18.9308 26.3747 19.62C26.4367 21.6601 26.4298 21.8255 26.2231 22.2253C25.9819 22.687 25.5408 23.1281 25.1341 23.328C24.9549 23.4107 24.438 23.5624 23.9693 23.6588C22.8252 23.8932 22.3497 24.1275 21.6949 24.7892C21.3021 25.1751 21.0884 25.4646 20.8334 25.9539C20.4405 26.6983 20.0684 27.1118 19.5515 27.3875C19.2137 27.5667 19.1172 27.5805 18.4556 27.5805H17.7319L16.9738 27.2221C16.0709 26.7948 15.7814 26.719 15.0095 26.719C14.2376 26.719 13.9481 26.7948 13.0452 27.2221L12.2871 27.5805H11.5634C10.9018 27.5805 10.8053 27.5667 10.4744 27.3875C9.93686 27.1049 9.57847 26.7052 9.18561 25.9608C8.93749 25.4853 8.71005 25.1751 8.35855 24.8167C7.71758 24.1689 7.1662 23.8863 6.07035 23.6588C5.61546 23.5692 5.09855 23.4245 4.91935 23.3418C4.49204 23.135 4.03715 22.687 3.79593 22.2322C3.58916 21.8324 3.57538 21.605 3.6443 19.6545C3.68565 18.4208 3.38239 17.6764 2.4037 16.6288C1.618 15.788 1.46637 15.4503 1.46637 14.5887C1.46637 13.7341 1.618 13.3895 2.38992 12.5624C3.01711 11.887 3.2859 11.4666 3.51335 10.798C3.6443 10.4121 3.66497 10.2398 3.6443 9.55744C3.58227 7.35884 3.58227 7.35883 3.83728 6.88327C4.27149 6.08378 4.76083 5.78742 6.05656 5.51862C7.62109 5.19469 8.46882 4.57439 9.18561 3.21663C9.57847 2.47228 9.93686 2.07253 10.4744 1.78995C10.8053 1.61076 10.9018 1.59697 11.5634 1.59697H12.2871L13.0452 1.95536C13.9481 2.38268 14.2376 2.45849 15.0095 2.45849C15.7745 2.45849 16.064 2.38268 16.96 1.96915C18.049 1.46602 18.7933 1.41777 19.5721 1.81063Z" fill="#D8942E"/>
<path d="M11.2739 6.86254C9.67495 7.37256 8.79275 9.01979 9.28209 10.5843C9.95063 12.7416 12.6179 13.4239 14.2307 11.8525C14.658 11.4389 14.975 10.8187 15.0922 10.1777C15.2438 9.35751 14.9544 8.37193 14.3616 7.71717C13.5966 6.87632 12.3353 6.52482 11.2739 6.86254ZM12.5834 8.21341C13.2727 8.42017 13.7 8.99222 13.7 9.70901C13.7 10.6326 13.059 11.2804 12.1492 11.2804C11.2326 11.2804 10.5778 10.6326 10.5778 9.72968C10.5778 8.97155 11.0603 8.35814 11.8046 8.17205C12.1217 8.09624 12.1975 8.10313 12.5834 8.21341Z" fill="#D8942E"/>
<path d="M14.5132 14.0924L9.22004 19.3787V19.675C9.22004 19.9163 9.2614 20.0127 9.41992 20.1782C9.58533 20.3367 9.68182 20.378 9.92305 20.378H10.2194L15.5057 15.0848L20.7989 9.79853V9.50217C20.7989 9.26094 20.7576 9.16445 20.599 8.99904C20.4336 8.84052 20.3371 8.79916 20.0959 8.79916H19.7995L14.5132 14.0924Z" fill="#D8942E"/>
<path d="M17.1805 16.546C15.678 16.9182 14.6718 18.4138 14.9268 19.9094C15.3403 22.3079 18.1592 23.2797 19.9167 21.6324C21.6398 20.0197 20.8816 17.0974 18.5934 16.5598C18.0627 16.4357 17.6561 16.4288 17.1805 16.546ZM18.4762 17.9865C19.7168 18.5103 19.7858 20.254 18.5934 20.8605C18.2075 21.0535 17.8697 21.0879 17.47 20.9708C16.7532 20.7571 16.319 20.192 16.319 19.4614C16.319 18.8066 16.6154 18.3104 17.1667 18.0416C17.5045 17.8693 18.1316 17.8486 18.4762 17.9865Z" fill="#D8942E"/>
</svg>
