<svg width="28" height="29" viewBox="0 0 28 29" fill="none" xmlns="http://www.w3.org/2000/svg">
<g clip-path="url(#clip0_155_86)">
<path d="M12.9883 0.637693C11.9273 0.812693 11.4953 1.12988 11.0359 2.07598C10.6586 2.85254 10.1828 3.21347 9.07812 3.56894C8.41641 3.77676 8.02812 3.77129 7.46484 3.53613C6.89062 3.30097 6.30547 3.25723 5.83516 3.42129C5.36484 3.59082 4.85078 3.96269 4.19453 4.60801C3.48906 5.30801 3.10078 5.84394 2.95312 6.31973C2.8 6.81191 2.81641 7.07441 3.03516 7.73613C3.27578 8.45801 3.28672 8.84082 3.08984 9.42598C2.76719 10.3885 2.31328 11.0502 1.83203 11.2744C1.07734 11.6189 0.907812 11.7283 0.65625 12.0018C0.169531 12.5322 0.0273438 13.09 0.0273438 14.5064C0.0273438 15.6221 0.0820312 15.9994 0.30625 16.4752C0.530469 16.9564 0.765625 17.1752 1.41094 17.5088C2.1 17.8588 2.35703 18.1049 2.64687 18.6846C2.95859 19.3025 3.12812 19.8658 3.13359 20.3033C3.13359 20.615 3.10078 20.7682 2.95312 21.1236C2.60859 21.9549 2.67422 22.6439 3.16094 23.3932C3.44531 23.8252 4.61016 25.001 5.04766 25.2908C5.48516 25.5807 5.96094 25.7447 6.36016 25.7447C6.54062 25.7447 6.84141 25.6736 7.19141 25.5533C8.07187 25.2471 8.63516 25.3127 9.68515 25.8596C10.3469 26.2041 10.5055 26.3736 10.8445 27.0736C11.2711 27.9541 11.6703 28.2877 12.5508 28.4846C12.9992 28.5885 15.0008 28.5885 15.4492 28.4846C16.3297 28.2877 16.7289 27.9541 17.1555 27.0736C17.4945 26.3736 17.6531 26.2041 18.3148 25.8596C19.3648 25.3127 19.9281 25.2471 20.8086 25.5533C21.9406 25.9471 22.5859 25.7338 23.7836 24.5689C24.5164 23.858 24.8281 23.4697 25.0633 22.9721C25.2219 22.633 25.2383 22.5564 25.2383 22.0807C25.2328 21.6158 25.2164 21.5119 25.0469 21.1236C24.8117 20.5549 24.8008 20.1229 25.0195 19.483C25.2109 18.9033 25.5445 18.2689 25.7906 18.0174C25.9055 17.9025 26.2555 17.6783 26.5836 17.5088C27.3984 17.0932 27.7102 16.7049 27.8961 15.8736C27.9945 15.458 28 13.5822 27.907 13.1885C27.6773 12.1986 27.2781 11.7393 26.3375 11.3564C25.725 11.1103 25.2656 10.4869 24.9102 9.42598C24.7133 8.84082 24.7242 8.45801 24.9648 7.73613C25.1836 7.07441 25.2 6.81191 25.0469 6.31973C24.9047 5.85488 24.5219 5.31894 23.8711 4.66816C23.2531 4.06113 22.8211 3.72207 22.3781 3.50332C22.0992 3.3666 22.0062 3.35019 21.5195 3.35019C21.0219 3.35019 20.9344 3.3666 20.5352 3.53613C20.1906 3.67832 20.0266 3.7166 19.7422 3.7166C19.0859 3.71113 17.8773 3.22988 17.4234 2.79238C17.2977 2.67207 17.1062 2.37129 16.9641 2.08144C16.5648 1.25566 16.2312 0.954882 15.482 0.736132C15.0773 0.621286 13.4859 0.555662 12.9883 0.637693ZM15.0719 2.44785C15.2086 2.49707 15.2742 2.58457 15.4328 2.9291C15.8758 3.90801 16.5648 4.51504 17.8008 5.02363C19.0969 5.54863 20.0266 5.60879 21 5.23144C21.2242 5.14394 21.4648 5.07285 21.525 5.07285C21.782 5.07285 22.9797 6.16113 23.2914 6.67519L23.4172 6.88301L23.2477 7.35879C22.925 8.25019 22.9305 9.02676 23.2695 10.0275C23.7727 11.5424 24.4398 12.39 25.5227 12.9041C26.0641 13.1557 26.0859 13.1775 26.1516 13.4018C26.2555 13.7463 26.25 15.4416 26.1406 15.6549C26.0805 15.7752 25.9273 15.8791 25.5609 16.065C25.2875 16.2018 24.9484 16.4041 24.8062 16.5244C24.0461 17.1479 23.2969 18.6572 23.1328 19.9096C23.0617 20.4455 23.1164 20.9596 23.3023 21.4682C23.5484 22.1408 23.5539 22.1572 23.3789 22.4143C23.1547 22.7588 22.2852 23.6393 21.9734 23.8361L21.7 24.0111L21.3664 23.8854C20.7266 23.6502 20.4094 23.601 19.7695 23.6283C19.1023 23.6557 18.5719 23.7979 17.8008 24.1588C16.718 24.6564 16.1328 25.1979 15.6898 26.1057C15.4219 26.6471 15.4 26.6744 15.1812 26.74C14.8805 26.833 13.1195 26.833 12.8187 26.74C12.6 26.6744 12.5781 26.6471 12.3102 26.1057C11.8672 25.1979 11.2875 24.6564 10.2156 24.1643C9.42812 23.7979 8.90312 23.6611 8.23047 23.6283C7.59062 23.601 7.27344 23.6502 6.63359 23.8854L6.3 24.0111L6.02656 23.8361C5.71484 23.6393 4.84531 22.7588 4.62109 22.4143C4.44609 22.1572 4.45156 22.1408 4.69766 21.4682C4.88359 20.9596 4.93828 20.4455 4.86719 19.9096C4.70312 18.6572 3.95391 17.1479 3.19375 16.5244C3.05156 16.4041 2.7125 16.2018 2.43906 16.065C2.07266 15.8791 1.91953 15.7752 1.85937 15.6549C1.75 15.4416 1.74453 13.7463 1.84844 13.4018C1.91406 13.1775 1.93594 13.1557 2.47734 12.9041C3.55469 12.3955 4.22734 11.5369 4.73047 10.0275C5.06953 9.02676 5.075 8.25019 4.75234 7.35879L4.58281 6.88301L4.70859 6.67519C5.02031 6.16113 6.21797 5.07285 6.475 5.07285C6.53516 5.07285 6.77578 5.14394 7 5.23144C7.97344 5.60879 8.90312 5.54863 10.1992 5.01816C11.4406 4.51504 12.1187 3.91348 12.5672 2.92363C12.7695 2.48066 12.7969 2.45879 13.2891 2.37129C13.5406 2.32754 14.9023 2.38223 15.0719 2.44785Z" fill="#D8942E"/>
<path d="M13.1797 9.42069C10.9047 9.77616 9.11093 11.641 8.79922 13.9652C8.60781 15.4363 9.12734 17.0332 10.1664 18.1598C11.3586 19.4449 13.1687 20.0574 14.8805 19.7566C18.0305 19.2098 19.9719 15.9887 18.9656 12.9644C18.3422 11.0832 16.718 9.71053 14.7656 9.41522C14.1422 9.32225 13.8031 9.32225 13.1797 9.42069ZM15.0172 11.2582C15.7172 11.4715 16.357 11.9144 16.7727 12.4723C17.8391 13.9105 17.7133 15.8082 16.4664 17.0551C15.0883 18.4332 12.9117 18.4332 11.5336 17.0551C9.8875 15.4035 10.2703 12.6855 12.3211 11.5371C13.1086 11.0941 14.1312 10.9848 15.0172 11.2582Z" fill="#D8942E"/>
</g>
<defs>
<clipPath id="clip0_155_86">
<rect width="28" height="28" fill="white" transform="translate(0 0.588379)"/>
</clipPath>
</defs>
</svg>
