<svg width="30" height="32" viewBox="0 0 30 32" fill="none" xmlns="http://www.w3.org/2000/svg">
<path d="M10.7053 0.0875109C8.17641 0.488734 6.12167 2.29424 5.41649 4.73197C5.19156 5.50402 5.10645 6.40373 5.19764 7.15146C5.51375 9.89923 7.34357 12.0391 10.0002 12.7807C10.523 12.9266 10.6749 12.9449 11.6415 12.9449C12.8452 12.9449 13.3011 12.8537 14.2555 12.4342C17.1978 11.1455 18.7602 7.80801 17.8666 4.73197C17.2282 2.52524 15.4592 0.804849 13.2525 0.23341C12.5716 0.0631944 11.3376 -0.00975524 10.7053 0.0875109ZM12.9121 1.49179C14.8027 1.96596 16.3346 3.57085 16.7176 5.49186C16.8574 6.16664 16.8149 7.27913 16.6325 7.91743C16.134 9.63175 14.8027 10.9692 13.0701 11.492C12.5838 11.6379 12.4257 11.6561 11.6415 11.6561C10.8573 11.6561 10.6993 11.6379 10.2129 11.492C8.80256 11.0664 7.66577 10.1181 7.02138 8.83538C6.66879 8.13628 6.52897 7.59524 6.49249 6.73808C6.42562 5.23046 6.88156 4.00855 7.92717 2.92647C9.22202 1.5769 11.1005 1.03586 12.9121 1.49179Z" fill="#D8942E"/>
<path d="M20.4563 14.4099C19.9152 14.6409 19.745 14.9874 19.6295 16.0391C19.587 16.4768 19.5444 16.8962 19.5444 16.9692C19.5444 17.0725 19.4593 17.1515 19.1979 17.2853C19.0034 17.3826 18.748 17.5285 18.6265 17.6136L18.4076 17.7595L17.5444 17.3765C16.5778 16.9388 16.2191 16.8841 15.7875 17.1029C15.4531 17.2731 15.3559 17.4069 14.6872 18.5619C14.0367 19.6926 13.9516 19.9419 14.0732 20.3796C14.1644 20.7322 14.4015 20.9814 15.1917 21.5528L15.8665 22.0452L15.8726 22.72V23.4009L15.1127 23.948C14.2981 24.5316 14.1097 24.7565 14.0367 25.2368C13.982 25.5955 14.0732 25.8204 14.7601 27.0058C15.3863 28.094 15.5443 28.2764 15.982 28.4162C16.3529 28.5317 16.7115 28.4527 17.593 28.0514L18.4137 27.6806L18.5657 27.7961C18.6508 27.8569 18.9061 28.0089 19.1249 28.1305L19.5262 28.3554L19.6234 29.3098C19.745 30.4709 19.8544 30.7019 20.3955 30.9876L20.7298 31.1579L23.4776 31.1214L23.7268 30.9512C24.1889 30.6472 24.2861 30.4284 24.3895 29.4375C24.505 28.2946 24.4989 28.325 24.7177 28.2338C24.8211 28.1912 25.0703 28.0454 25.2709 27.9177L25.6357 27.6806L26.4625 28.0575C26.9731 28.2946 27.4047 28.4466 27.5871 28.4648C27.9518 28.5013 28.3348 28.3615 28.5841 28.094C28.7664 27.8995 29.6601 26.3918 29.885 25.9055C30.0978 25.4374 29.9823 24.8113 29.6297 24.483C29.5507 24.41 29.1859 24.1365 28.8272 23.8751L28.1646 23.4009L28.1585 22.7261L28.1464 22.0513L28.8698 21.5407C29.6358 20.9996 29.8181 20.8051 29.9397 20.4282C30.0856 19.9723 29.9944 19.6926 29.3561 18.5862C28.7239 17.4798 28.5719 17.2792 28.2254 17.1029C27.8059 16.8901 27.4594 16.9388 26.4989 17.3704L25.6418 17.7534L25.0703 17.4069L24.4989 17.0664L24.4199 16.2518C24.3226 15.2366 24.2679 15.036 24.0308 14.7624C23.6539 14.3369 23.5445 14.3126 22.0247 14.3126C20.9548 14.3187 20.6265 14.3369 20.4563 14.4099ZM23.0885 15.9661C23.3013 18.1181 23.2405 17.9662 24.0065 18.3187C24.274 18.4464 24.6691 18.6774 24.8819 18.8355C25.4412 19.2549 25.4776 19.2488 26.4564 18.8111C26.9184 18.6045 27.3804 18.3978 27.4898 18.3491L27.6844 18.264L28.195 19.1637L28.7057 20.0574L28.3044 20.3431C27.0704 21.2306 26.8941 21.3765 26.8333 21.5285C26.7847 21.6501 26.7847 21.8507 26.8333 22.2215C26.8819 22.5984 26.8819 22.8781 26.8333 23.2428C26.736 23.9602 26.7482 23.9845 27.812 24.7505L28.7057 25.3948L28.195 26.2885L27.6783 27.1882L26.6813 26.7383C26.1342 26.4891 25.6053 26.2885 25.5141 26.2885C25.4108 26.2885 25.1919 26.3979 24.9488 26.5681C24.736 26.7201 24.3044 26.9754 23.9943 27.1274C23.6113 27.3159 23.3986 27.4557 23.3499 27.559C23.3013 27.6441 23.2223 28.1791 23.1615 28.7505C23.1068 29.3159 23.046 29.8022 23.0277 29.8265C23.0156 29.8569 22.5536 29.8752 22.0065 29.8752C21.0156 29.8752 21.0034 29.8752 20.9791 29.7354C20.9608 29.6624 20.9061 29.1639 20.8575 28.635C20.7906 27.9967 20.7298 27.6198 20.669 27.5225C20.6143 27.4435 20.3651 27.2855 20.1158 27.17C19.8666 27.0545 19.5444 26.8842 19.4046 26.787C19.2648 26.6897 19.0398 26.5377 18.9122 26.4526C18.7845 26.3614 18.6021 26.2885 18.511 26.2885C18.4198 26.2885 17.9152 26.4769 17.3924 26.714C16.8757 26.945 16.4197 27.1396 16.3893 27.1396C16.3164 27.1396 15.3376 25.4435 15.3802 25.3827C15.3924 25.3523 15.7814 25.0605 16.2374 24.7383C16.6872 24.41 17.0945 24.0878 17.1371 24.0149C17.1918 23.9237 17.21 23.5711 17.2039 22.7018C17.1979 22.0513 17.1735 21.4738 17.1492 21.4252C17.131 21.3765 16.7115 21.0483 16.2313 20.6957C15.7206 20.3309 15.362 20.027 15.3741 19.9844C15.4045 19.9115 16.3164 18.3127 16.3529 18.2762C16.3589 18.2701 16.8027 18.4586 17.3316 18.7017C17.9456 18.9814 18.3772 19.1394 18.511 19.1394C18.669 19.1394 18.8514 19.0482 19.2344 18.7868C19.514 18.5984 19.9274 18.3552 20.1584 18.2519C20.3833 18.1485 20.6143 18.0026 20.663 17.9297C20.7238 17.8324 20.7906 17.4312 20.8575 16.7625C20.9122 16.2032 20.9608 15.7047 20.9791 15.6622C20.9912 15.6074 21.2587 15.5892 22.0247 15.5892H23.0521L23.0885 15.9661Z" fill="#D8942E"/>
<path d="M21.3985 19.5407C21.0095 19.6197 20.5596 19.8082 20.1888 20.0514C19.2101 20.7079 18.6325 22.0088 18.8149 23.1517C18.9426 23.9359 19.204 24.4587 19.7572 25.018C20.3773 25.6442 21.1432 25.9481 22.0673 25.942C23.429 25.9299 24.5901 25.1031 25.0582 23.8083C25.7087 22.021 24.6144 20.0088 22.7542 19.5711C22.3469 19.4738 21.7937 19.4617 21.3985 19.5407ZM22.8697 20.9997C24.3105 21.7049 24.3044 23.7536 22.8515 24.4709C22.6022 24.5925 22.4624 24.6168 22.0065 24.6168C21.5505 24.6168 21.4107 24.5925 21.1858 24.4709C20.5232 24.1305 20.1462 23.559 20.1037 22.8234C20.0733 22.2399 20.2314 21.79 20.6022 21.4009C21.2344 20.7505 22.0551 20.6046 22.8697 20.9997Z" fill="#D8942E"/>
<path d="M4.79036 15.6804C3.56845 15.8992 2.57147 16.4342 1.67176 17.3461C0.887553 18.1363 0.389065 19.0178 0.109424 20.1242C0.0121583 20.5011 0 20.8841 0 23.717V26.8964L0.170216 27.0605L0.334352 27.2307H11.2646L11.4227 27.0848C11.6355 26.8842 11.6902 26.5681 11.5504 26.3128C11.4896 26.2034 11.3984 26.0939 11.3437 26.0635C11.2889 26.0392 9.0032 26.0027 6.26151 25.9845L1.27662 25.9541V23.3705C1.27662 21.1394 1.29486 20.7321 1.38604 20.3795C1.73255 18.9996 2.67482 17.8628 3.95752 17.2853C4.80859 16.8962 4.68701 16.9084 9.48953 16.8719C13.6659 16.8354 13.8847 16.8293 14.0063 16.7199C14.2069 16.5375 14.2799 16.2457 14.1705 15.9965C13.9942 15.5709 14.1887 15.5892 9.47129 15.5953C6.27367 15.6013 5.11863 15.6196 4.79036 15.6804Z" fill="#D8942E"/>
</svg>
